<?xml version="1.0" standalone="no"?>
<svg
  width="600"
  height="600"
  viewBox="0 0 600 600"
  xmlns="http://www.w3.org/2000/svg"
>
  <g transform="translate(300,300)">
    <path d="M127.1,-146.8C160.7,-123.2,181.3,-79.4,189,-33.6C196.7,12.1,191.4,59.8,164.7,84.8C138,109.9,89.9,112.3,47.6,125.4C5.2,138.4,-31.2,162.3,-75.6,164.7C-119.9,167.2,-172.1,148.4,-198.7,110.7C-225.4,73,-226.4,16.4,-207.4,-27C-188.3,-70.4,-149.1,-100.7,-111.2,-123.5C-73.3,-146.3,-36.6,-161.7,5,-167.7C46.7,-173.7,93.4,-170.3,127.1,-146.8Z" fill="#FFB4BC" />
  </g>
</svg>
  